<svg width="169" height="103" viewBox="0 0 169 103" fill="none" xmlns="http://www.w3.org/2000/svg">
<g clip-path="url(#clip0_3_196)">
<rect x="2" y="2" width="165" height="99" fill="white"/>
<path d="M66.273 55.5V46.7727H68.1181V53.9787H71.8596V55.5H66.273ZM81.9616 51.1364C81.9616 52.0881 81.7812 52.8977 81.4204 53.5653C81.0625 54.233 80.5738 54.7429 79.9545 55.0952C79.338 55.4446 78.6449 55.6193 77.875 55.6193C77.0994 55.6193 76.4034 55.4432 75.7869 55.0909C75.1704 54.7386 74.6832 54.2287 74.3252 53.5611C73.9673 52.8935 73.7883 52.0852 73.7883 51.1364C73.7883 50.1847 73.9673 49.375 74.3252 48.7074C74.6832 48.0398 75.1704 47.5312 75.7869 47.1818C76.4034 46.8295 77.0994 46.6534 77.875 46.6534C78.6449 46.6534 79.338 46.8295 79.9545 47.1818C80.5738 47.5312 81.0625 48.0398 81.4204 48.7074C81.7812 49.375 81.9616 50.1847 81.9616 51.1364ZM80.0909 51.1364C80.0909 50.5199 79.9985 50 79.8139 49.5767C79.6321 49.1534 79.375 48.8324 79.0426 48.6136C78.7102 48.3949 78.321 48.2855 77.875 48.2855C77.4289 48.2855 77.0397 48.3949 76.7074 48.6136C76.375 48.8324 76.1164 49.1534 75.9318 49.5767C75.75 50 75.6591 50.5199 75.6591 51.1364C75.6591 51.7528 75.75 52.2727 75.9318 52.696C76.1164 53.1193 76.375 53.4403 76.7074 53.6591C77.0397 53.8778 77.4289 53.9872 77.875 53.9872C78.321 53.9872 78.7102 53.8778 79.0426 53.6591C79.375 53.4403 79.6321 53.1193 79.8139 52.696C79.9985 52.2727 80.0909 51.7528 80.0909 51.1364ZM90.3154 49.5938C90.2557 49.3864 90.1719 49.2031 90.064 49.044C89.956 48.8821 89.8239 48.7457 89.6676 48.6349C89.5142 48.5213 89.3381 48.4347 89.1392 48.375C88.9432 48.3153 88.7259 48.2855 88.4873 48.2855C88.0412 48.2855 87.6492 48.3963 87.3111 48.6179C86.9759 48.8395 86.7145 49.1619 86.527 49.5852C86.3395 50.0057 86.2458 50.5199 86.2458 51.1278C86.2458 51.7358 86.3381 52.2528 86.5228 52.679C86.7074 53.1051 86.9688 53.4304 87.3069 53.6548C87.6449 53.8764 88.0441 53.9872 88.5043 53.9872C88.9219 53.9872 89.2784 53.9134 89.5739 53.7656C89.8722 53.6151 90.0995 53.4034 90.2557 53.1307C90.4148 52.858 90.4944 52.5355 90.4944 52.1634L90.8694 52.2188H88.6194V50.8295H92.2713V51.929C92.2713 52.696 92.1094 53.3551 91.7855 53.9062C91.4617 54.4545 91.0157 54.8778 90.4475 55.1761C89.8793 55.4716 89.2287 55.6193 88.4958 55.6193C87.6776 55.6193 86.9588 55.4389 86.3395 55.0781C85.7202 54.7145 85.2373 54.1989 84.8907 53.5312C84.5469 52.8608 84.375 52.0653 84.375 51.1449C84.375 50.4375 84.4773 49.8068 84.6819 49.2528C84.8892 48.696 85.179 48.2244 85.5512 47.8381C85.9233 47.4517 86.3566 47.1577 86.8509 46.956C87.3452 46.7543 87.8807 46.6534 88.4574 46.6534C88.9517 46.6534 89.412 46.7259 89.8381 46.8707C90.2642 47.0128 90.6421 47.2145 90.9716 47.4759C91.304 47.7372 91.5753 48.0483 91.7855 48.4091C91.9958 48.767 92.1307 49.1619 92.1904 49.5938H90.3154ZM102.877 51.1364C102.877 52.0881 102.697 52.8977 102.336 53.5653C101.978 54.233 101.489 54.7429 100.87 55.0952C100.254 55.4446 99.5605 55.6193 98.7906 55.6193C98.015 55.6193 97.319 55.4432 96.7025 55.0909C96.086 54.7386 95.5988 54.2287 95.2409 53.5611C94.8829 52.8935 94.7039 52.0852 94.7039 51.1364C94.7039 50.1847 94.8829 49.375 95.2409 48.7074C95.5988 48.0398 96.086 47.5312 96.7025 47.1818C97.319 46.8295 98.015 46.6534 98.7906 46.6534C99.5605 46.6534 100.254 46.8295 100.87 47.1818C101.489 47.5312 101.978 48.0398 102.336 48.7074C102.697 49.375 102.877 50.1847 102.877 51.1364ZM101.007 51.1364C101.007 50.5199 100.914 50 100.73 49.5767C100.548 49.1534 100.291 48.8324 99.9582 48.6136C99.6258 48.3949 99.2366 48.2855 98.7906 48.2855C98.3446 48.2855 97.9554 48.3949 97.623 48.6136C97.2906 48.8324 97.0321 49.1534 96.8474 49.5767C96.6656 50 96.5747 50.5199 96.5747 51.1364C96.5747 51.7528 96.6656 52.2727 96.8474 52.696C97.0321 53.1193 97.2906 53.4403 97.623 53.6591C97.9554 53.8778 98.3446 53.9872 98.7906 53.9872C99.2366 53.9872 99.6258 53.8778 99.9582 53.6591C100.291 53.4403 100.548 53.1193 100.73 52.696C100.914 52.2727 101.007 51.7528 101.007 51.1364Z" fill="#BBBBBB"/>
<path d="M167.514 2.85749C167.988 2.57334 168.142 1.95908 167.857 1.4855C167.573 1.01192 166.959 0.858359 166.486 1.14251L167.514 2.85749ZM103.736 38.7922C103.262 39.0763 103.109 39.6906 103.393 40.1642C103.677 40.6378 104.291 40.7913 104.765 40.5072L103.736 38.7922ZM65.264 64.2078C65.7375 63.9237 65.8911 63.3094 65.607 62.8358C65.3228 62.3622 64.7086 62.2087 64.235 62.4928L65.264 64.2078ZM1.4855 100.143C1.01192 100.427 0.858359 101.041 1.14251 101.514C1.42666 101.988 2.04092 102.142 2.5145 101.857L1.4855 100.143ZM2.5145 1.14251C2.04092 0.858359 1.42666 1.01192 1.14251 1.4855C0.858359 1.95908 1.01192 2.57334 1.4855 2.85749L2.5145 1.14251ZM64.235 40.5072C64.7086 40.7913 65.3228 40.6378 65.607 40.1642C65.8911 39.6906 65.7375 39.0763 65.264 38.7922L64.235 40.5072ZM104.765 62.4928C104.291 62.2087 103.677 62.3622 103.393 62.8358C103.109 63.3094 103.262 63.9237 103.736 64.2078L104.765 62.4928ZM166.486 101.857C166.959 102.142 167.573 101.988 167.857 101.514C168.142 101.041 167.988 100.427 167.514 100.143L166.486 101.857ZM166.486 1.14251L103.736 38.7922L104.765 40.5072L167.514 2.85749L166.486 1.14251ZM64.235 62.4928L1.4855 100.143L2.5145 101.857L65.264 64.2078L64.235 62.4928ZM1.4855 2.85749L64.235 40.5072L65.264 38.7922L2.5145 1.14251L1.4855 2.85749ZM103.736 64.2078L166.486 101.857L167.514 100.143L104.765 62.4928L103.736 64.2078Z" fill="#BBBBBB"/>
</g>
<rect x="1" y="1" width="167" height="101" stroke="#BBBBBB" stroke-width="2" stroke-linejoin="round"/>
<defs>
<clipPath id="clip0_3_196">
<rect x="2" y="2" width="165" height="99" fill="white"/>
</clipPath>
</defs>
</svg>
